<mxfile host="app.diagrams.net" modified="2024-04-12T15:53:30.608Z" agent="Mozilla/5.0 (Windows NT 10.0; Win64; x64) AppleWebKit/537.36 (KHTML, like Gecko) Chrome/123.0.0.0 Safari/537.36" etag="HGrwoXJ0ELG9AvWz_DIs" version="24.2.2" type="device">
  <diagram name="Página-1" id="6QQBSKqrClAEmkO5gKph">
    <mxGraphModel dx="2312" dy="628" grid="1" gridSize="10" guides="1" tooltips="1" connect="1" arrows="1" fold="1" page="1" pageScale="1" pageWidth="850" pageHeight="1100" math="0" shadow="0">
      <root>
        <mxCell id="0" />
        <mxCell id="1" parent="0" />
        <mxCell id="Sju3vlpgno2fffgPkmKd-1" value="&lt;font style=&quot;vertical-align: inherit;&quot;&gt;&lt;font style=&quot;vertical-align: inherit;&quot;&gt;hopital&lt;/font&gt;&lt;/font&gt;" style="rounded=0;whiteSpace=wrap;html=1;" vertex="1" parent="1">
          <mxGeometry x="360" y="290" width="120" height="60" as="geometry" />
        </mxCell>
        <mxCell id="Sju3vlpgno2fffgPkmKd-2" value="&lt;span style=&quot;color: rgb(13, 13, 13); font-family: Söhne, ui-sans-serif, system-ui, -apple-system, &amp;quot;Segoe UI&amp;quot;, Roboto, Ubuntu, Cantarell, &amp;quot;Noto Sans&amp;quot;, sans-serif, &amp;quot;Helvetica Neue&amp;quot;, Arial, &amp;quot;Apple Color Emoji&amp;quot;, &amp;quot;Segoe UI Emoji&amp;quot;, &amp;quot;Segoe UI Symbol&amp;quot;, &amp;quot;Noto Color Emoji&amp;quot;; font-size: 16px; text-align: left; white-space-collapse: preserve; background-color: rgb(255, 255, 255);&quot;&gt;&lt;font style=&quot;vertical-align: inherit;&quot;&gt;&lt;font style=&quot;vertical-align: inherit;&quot;&gt;dirección&lt;/font&gt;&lt;/font&gt;&lt;/span&gt;" style="ellipse;whiteSpace=wrap;html=1;" vertex="1" parent="1">
          <mxGeometry x="30" y="180" width="120" height="80" as="geometry" />
        </mxCell>
        <mxCell id="Sju3vlpgno2fffgPkmKd-3" value="&lt;span style=&quot;color: rgb(13, 13, 13); font-family: Söhne, ui-sans-serif, system-ui, -apple-system, &amp;quot;Segoe UI&amp;quot;, Roboto, Ubuntu, Cantarell, &amp;quot;Noto Sans&amp;quot;, sans-serif, &amp;quot;Helvetica Neue&amp;quot;, Arial, &amp;quot;Apple Color Emoji&amp;quot;, &amp;quot;Segoe UI Emoji&amp;quot;, &amp;quot;Segoe UI Symbol&amp;quot;, &amp;quot;Noto Color Emoji&amp;quot;; font-size: 16px; text-align: left; white-space-collapse: preserve; background-color: rgb(255, 255, 255);&quot;&gt;&lt;font style=&quot;vertical-align: inherit;&quot;&gt;&lt;font style=&quot;vertical-align: inherit;&quot;&gt;nombre del hospital&lt;/font&gt;&lt;/font&gt;&lt;/span&gt;" style="ellipse;whiteSpace=wrap;html=1;" vertex="1" parent="1">
          <mxGeometry x="20" y="350" width="120" height="80" as="geometry" />
        </mxCell>
        <mxCell id="Sju3vlpgno2fffgPkmKd-4" value="&lt;span style=&quot;color: rgb(13, 13, 13); font-family: Söhne, ui-sans-serif, system-ui, -apple-system, &amp;quot;Segoe UI&amp;quot;, Roboto, Ubuntu, Cantarell, &amp;quot;Noto Sans&amp;quot;, sans-serif, &amp;quot;Helvetica Neue&amp;quot;, Arial, &amp;quot;Apple Color Emoji&amp;quot;, &amp;quot;Segoe UI Emoji&amp;quot;, &amp;quot;Segoe UI Symbol&amp;quot;, &amp;quot;Noto Color Emoji&amp;quot;; font-size: 16px; text-align: left; white-space-collapse: preserve; background-color: rgb(255, 255, 255);&quot;&gt;&lt;font style=&quot;vertical-align: inherit;&quot;&gt;&lt;font style=&quot;vertical-align: inherit;&quot;&gt;Tarifas de servicios médicos&lt;/font&gt;&lt;/font&gt;&lt;/span&gt;" style="ellipse;whiteSpace=wrap;html=1;" vertex="1" parent="1">
          <mxGeometry x="620" y="290" width="190" height="120" as="geometry" />
        </mxCell>
        <mxCell id="Sju3vlpgno2fffgPkmKd-5" value="&lt;ol style=&quot;border: 0px solid rgb(227, 227, 227); box-sizing: border-box; --tw-border-spacing-x: 0; --tw-border-spacing-y: 0; --tw-translate-x: 0; --tw-translate-y: 0; --tw-rotate: 0; --tw-skew-x: 0; --tw-skew-y: 0; --tw-scale-x: 1; --tw-scale-y: 1; --tw-pan-x: ; --tw-pan-y: ; --tw-pinch-zoom: ; --tw-scroll-snap-strictness: proximity; --tw-gradient-from-position: ; --tw-gradient-via-position: ; --tw-gradient-to-position: ; --tw-ordinal: ; --tw-slashed-zero: ; --tw-numeric-figure: ; --tw-numeric-spacing: ; --tw-numeric-fraction: ; --tw-ring-inset: ; --tw-ring-offset-width: 0px; --tw-ring-offset-color: #fff; --tw-ring-color: rgba(69,89,164,.5); --tw-ring-offset-shadow: 0 0 transparent; --tw-ring-shadow: 0 0 transparent; --tw-shadow: 0 0 transparent; --tw-shadow-colored: 0 0 transparent; --tw-blur: ; --tw-brightness: ; --tw-contrast: ; --tw-grayscale: ; --tw-hue-rotate: ; --tw-invert: ; --tw-saturate: ; --tw-sepia: ; --tw-drop-shadow: ; --tw-backdrop-blur: ; --tw-backdrop-brightness: ; --tw-backdrop-contrast: ; --tw-backdrop-grayscale: ; --tw-backdrop-hue-rotate: ; --tw-backdrop-invert: ; --tw-backdrop-opacity: ; --tw-backdrop-saturate: ; --tw-backdrop-sepia: ; --tw-contain-size: ; --tw-contain-layout: ; --tw-contain-paint: ; --tw-contain-style: ; list-style: none; margin: 1.25em 0px; padding: 0px; counter-reset: list-number 0; display: flex; flex-direction: column; color: rgb(13, 13, 13); font-family: Söhne, ui-sans-serif, system-ui, -apple-system, &amp;quot;Segoe UI&amp;quot;, Roboto, Ubuntu, Cantarell, &amp;quot;Noto Sans&amp;quot;, sans-serif, &amp;quot;Helvetica Neue&amp;quot;, Arial, &amp;quot;Apple Color Emoji&amp;quot;, &amp;quot;Segoe UI Emoji&amp;quot;, &amp;quot;Segoe UI Symbol&amp;quot;, &amp;quot;Noto Color Emoji&amp;quot;; font-size: 16px; text-align: start; white-space-collapse: preserve; background-color: rgb(255, 255, 255);&quot;&gt;&lt;li style=&quot;border: 0px solid rgb(227, 227, 227); box-sizing: border-box; --tw-border-spacing-x: 0; --tw-border-spacing-y: 0; --tw-translate-x: 0; --tw-translate-y: 0; --tw-rotate: 0; --tw-skew-x: 0; --tw-skew-y: 0; --tw-scale-x: 1; --tw-scale-y: 1; --tw-pan-x: ; --tw-pan-y: ; --tw-pinch-zoom: ; --tw-scroll-snap-strictness: proximity; --tw-gradient-from-position: ; --tw-gradient-via-position: ; --tw-gradient-to-position: ; --tw-ordinal: ; --tw-slashed-zero: ; --tw-numeric-figure: ; --tw-numeric-spacing: ; --tw-numeric-fraction: ; --tw-ring-inset: ; --tw-ring-offset-width: 0px; --tw-ring-offset-color: #fff; --tw-ring-color: rgba(69,89,164,.5); --tw-ring-offset-shadow: 0 0 transparent; --tw-ring-shadow: 0 0 transparent; --tw-shadow: 0 0 transparent; --tw-shadow-colored: 0 0 transparent; --tw-blur: ; --tw-brightness: ; --tw-contrast: ; --tw-grayscale: ; --tw-hue-rotate: ; --tw-invert: ; --tw-saturate: ; --tw-sepia: ; --tw-drop-shadow: ; --tw-backdrop-blur: ; --tw-backdrop-brightness: ; --tw-backdrop-contrast: ; --tw-backdrop-grayscale: ; --tw-backdrop-hue-rotate: ; --tw-backdrop-invert: ; --tw-backdrop-opacity: ; --tw-backdrop-saturate: ; --tw-backdrop-sepia: ; --tw-contain-size: ; --tw-contain-layout: ; --tw-contain-paint: ; --tw-contain-style: ; margin-bottom: 0px; margin-top: 0px; padding-left: 0.375em; counter-increment: list-number 1; display: block; min-height: 28px;&quot;&gt;&lt;font style=&quot;vertical-align: inherit;&quot;&gt;&lt;font style=&quot;vertical-align: inherit;&quot;&gt;Horario de atención&lt;/font&gt;&lt;/font&gt;&lt;/li&gt;&lt;div&gt;&lt;br&gt;&lt;/div&gt;&lt;/ol&gt;" style="ellipse;whiteSpace=wrap;html=1;" vertex="1" parent="1">
          <mxGeometry x="110" y="30" width="170" height="90" as="geometry" />
        </mxCell>
        <mxCell id="Sju3vlpgno2fffgPkmKd-6" value="&lt;span style=&quot;color: rgb(13, 13, 13); font-family: Söhne, ui-sans-serif, system-ui, -apple-system, &amp;quot;Segoe UI&amp;quot;, Roboto, Ubuntu, Cantarell, &amp;quot;Noto Sans&amp;quot;, sans-serif, &amp;quot;Helvetica Neue&amp;quot;, Arial, &amp;quot;Apple Color Emoji&amp;quot;, &amp;quot;Segoe UI Emoji&amp;quot;, &amp;quot;Segoe UI Symbol&amp;quot;, &amp;quot;Noto Color Emoji&amp;quot;; font-size: 16px; text-align: left; white-space-collapse: preserve; background-color: rgb(255, 255, 255);&quot;&gt;&lt;font style=&quot;vertical-align: inherit;&quot;&gt;&lt;font style=&quot;vertical-align: inherit;&quot;&gt;Médico personal y de enfermería&lt;/font&gt;&lt;/font&gt;&lt;/span&gt;" style="ellipse;whiteSpace=wrap;html=1;" vertex="1" parent="1">
          <mxGeometry x="360" y="20" width="180" height="100" as="geometry" />
        </mxCell>
        <mxCell id="Sju3vlpgno2fffgPkmKd-7" value="&lt;span style=&quot;color: rgb(13, 13, 13); font-family: Söhne, ui-sans-serif, system-ui, -apple-system, &amp;quot;Segoe UI&amp;quot;, Roboto, Ubuntu, Cantarell, &amp;quot;Noto Sans&amp;quot;, sans-serif, &amp;quot;Helvetica Neue&amp;quot;, Arial, &amp;quot;Apple Color Emoji&amp;quot;, &amp;quot;Segoe UI Emoji&amp;quot;, &amp;quot;Segoe UI Symbol&amp;quot;, &amp;quot;Noto Color Emoji&amp;quot;; font-size: 16px; text-align: left; white-space-collapse: preserve; background-color: rgb(255, 255, 255);&quot;&gt;&lt;font style=&quot;vertical-align: inherit;&quot;&gt;&lt;font style=&quot;vertical-align: inherit;&quot;&gt;Equipamiento médico disponible&lt;/font&gt;&lt;/font&gt;&lt;/span&gt;" style="ellipse;whiteSpace=wrap;html=1;" vertex="1" parent="1">
          <mxGeometry x="620" y="50" width="170" height="110" as="geometry" />
        </mxCell>
        <mxCell id="Sju3vlpgno2fffgPkmKd-8" value="" style="endArrow=classic;html=1;rounded=0;entryX=0;entryY=1;entryDx=0;entryDy=0;exitX=1;exitY=0;exitDx=0;exitDy=0;" edge="1" parent="1" source="Sju3vlpgno2fffgPkmKd-1" target="Sju3vlpgno2fffgPkmKd-7">
          <mxGeometry width="50" height="50" relative="1" as="geometry">
            <mxPoint x="425" y="290" as="sourcePoint" />
            <mxPoint x="475" y="240" as="targetPoint" />
          </mxGeometry>
        </mxCell>
        <mxCell id="Sju3vlpgno2fffgPkmKd-9" value="" style="endArrow=classic;html=1;rounded=0;entryX=0.946;entryY=0.878;entryDx=0;entryDy=0;entryPerimeter=0;exitX=0;exitY=0;exitDx=0;exitDy=0;" edge="1" parent="1" source="Sju3vlpgno2fffgPkmKd-1" target="Sju3vlpgno2fffgPkmKd-5">
          <mxGeometry width="50" height="50" relative="1" as="geometry">
            <mxPoint x="240" y="342" as="sourcePoint" />
            <mxPoint x="343" y="180" as="targetPoint" />
          </mxGeometry>
        </mxCell>
        <mxCell id="Sju3vlpgno2fffgPkmKd-10" value="" style="endArrow=classic;html=1;rounded=0;entryX=0.988;entryY=0.613;entryDx=0;entryDy=0;entryPerimeter=0;exitX=0;exitY=0.5;exitDx=0;exitDy=0;" edge="1" parent="1" source="Sju3vlpgno2fffgPkmKd-1" target="Sju3vlpgno2fffgPkmKd-2">
          <mxGeometry width="50" height="50" relative="1" as="geometry">
            <mxPoint x="240" y="342" as="sourcePoint" />
            <mxPoint x="343" y="180" as="targetPoint" />
          </mxGeometry>
        </mxCell>
        <mxCell id="Sju3vlpgno2fffgPkmKd-11" value="" style="endArrow=classic;html=1;rounded=0;entryX=0.633;entryY=1.035;entryDx=0;entryDy=0;entryPerimeter=0;exitX=0.5;exitY=0;exitDx=0;exitDy=0;" edge="1" parent="1" source="Sju3vlpgno2fffgPkmKd-1" target="Sju3vlpgno2fffgPkmKd-6">
          <mxGeometry width="50" height="50" relative="1" as="geometry">
            <mxPoint x="368.5" y="320" as="sourcePoint" />
            <mxPoint x="471.5" y="158" as="targetPoint" />
          </mxGeometry>
        </mxCell>
        <mxCell id="Sju3vlpgno2fffgPkmKd-12" value="" style="endArrow=classic;html=1;rounded=0;entryX=-0.002;entryY=0.722;entryDx=0;entryDy=0;entryPerimeter=0;" edge="1" parent="1" target="Sju3vlpgno2fffgPkmKd-4">
          <mxGeometry width="50" height="50" relative="1" as="geometry">
            <mxPoint x="480" y="342" as="sourcePoint" />
            <mxPoint x="583" y="180" as="targetPoint" />
          </mxGeometry>
        </mxCell>
        <mxCell id="Sju3vlpgno2fffgPkmKd-13" value="" style="endArrow=classic;html=1;rounded=0;entryX=0.977;entryY=0.269;entryDx=0;entryDy=0;entryPerimeter=0;exitX=0.333;exitY=1;exitDx=0;exitDy=0;exitPerimeter=0;" edge="1" parent="1" source="Sju3vlpgno2fffgPkmKd-1" target="Sju3vlpgno2fffgPkmKd-3">
          <mxGeometry width="50" height="50" relative="1" as="geometry">
            <mxPoint x="220" y="441" as="sourcePoint" />
            <mxPoint x="323" y="279" as="targetPoint" />
          </mxGeometry>
        </mxCell>
        <mxCell id="Sju3vlpgno2fffgPkmKd-14" value="&lt;font style=&quot;vertical-align: inherit;&quot;&gt;&lt;font style=&quot;vertical-align: inherit;&quot;&gt;Atencion&lt;/font&gt;&lt;/font&gt;" style="rhombus;whiteSpace=wrap;html=1;" vertex="1" parent="1">
          <mxGeometry x="170" y="520" width="110" height="110" as="geometry" />
        </mxCell>
        <mxCell id="Sju3vlpgno2fffgPkmKd-16" value="&lt;font style=&quot;vertical-align: inherit;&quot;&gt;&lt;font style=&quot;vertical-align: inherit;&quot;&gt;paciente&lt;/font&gt;&lt;/font&gt;" style="rhombus;whiteSpace=wrap;html=1;" vertex="1" parent="1">
          <mxGeometry x="365" y="520" width="120" height="110" as="geometry" />
        </mxCell>
        <mxCell id="Sju3vlpgno2fffgPkmKd-17" value="&lt;font style=&quot;vertical-align: inherit;&quot;&gt;&lt;font style=&quot;vertical-align: inherit;&quot;&gt;personal&lt;/font&gt;&lt;/font&gt;&lt;div&gt;&lt;font style=&quot;vertical-align: inherit;&quot;&gt;&lt;font style=&quot;vertical-align: inherit;&quot;&gt;&lt;font style=&quot;vertical-align: inherit;&quot;&gt;&lt;font style=&quot;vertical-align: inherit;&quot;&gt;medicos&lt;/font&gt;&lt;/font&gt;&lt;/font&gt;&lt;/font&gt;&lt;/div&gt;" style="rhombus;whiteSpace=wrap;html=1;" vertex="1" parent="1">
          <mxGeometry x="570" y="510" width="120" height="110" as="geometry" />
        </mxCell>
        <mxCell id="Sju3vlpgno2fffgPkmKd-18" value="" style="endArrow=classic;html=1;rounded=0;entryX=0.5;entryY=0;entryDx=0;entryDy=0;exitX=0.5;exitY=1;exitDx=0;exitDy=0;" edge="1" parent="1" source="Sju3vlpgno2fffgPkmKd-1" target="Sju3vlpgno2fffgPkmKd-16">
          <mxGeometry width="50" height="50" relative="1" as="geometry">
            <mxPoint x="350" y="520" as="sourcePoint" />
            <mxPoint x="400" y="470" as="targetPoint" />
          </mxGeometry>
        </mxCell>
        <mxCell id="Sju3vlpgno2fffgPkmKd-19" value="" style="endArrow=classic;html=1;rounded=0;entryX=0.5;entryY=0;entryDx=0;entryDy=0;" edge="1" parent="1" target="Sju3vlpgno2fffgPkmKd-14">
          <mxGeometry width="50" height="50" relative="1" as="geometry">
            <mxPoint x="410" y="350" as="sourcePoint" />
            <mxPoint x="240" y="510" as="targetPoint" />
          </mxGeometry>
        </mxCell>
        <mxCell id="Sju3vlpgno2fffgPkmKd-20" value="" style="endArrow=classic;html=1;rounded=0;exitX=0.613;exitY=1.025;exitDx=0;exitDy=0;exitPerimeter=0;entryX=0.5;entryY=0;entryDx=0;entryDy=0;" edge="1" parent="1" source="Sju3vlpgno2fffgPkmKd-1" target="Sju3vlpgno2fffgPkmKd-17">
          <mxGeometry width="50" height="50" relative="1" as="geometry">
            <mxPoint x="440" y="370" as="sourcePoint" />
            <mxPoint x="680" y="510" as="targetPoint" />
          </mxGeometry>
        </mxCell>
        <mxCell id="Sju3vlpgno2fffgPkmKd-21" value="&lt;font style=&quot;vertical-align: inherit;&quot;&gt;&lt;font style=&quot;vertical-align: inherit;&quot;&gt;permisos&amp;nbsp;&lt;/font&gt;&lt;/font&gt;" style="rounded=0;whiteSpace=wrap;html=1;" vertex="1" parent="1">
          <mxGeometry x="680" y="780" width="120" height="60" as="geometry" />
        </mxCell>
        <mxCell id="Sju3vlpgno2fffgPkmKd-22" value="" style="endArrow=classic;html=1;rounded=0;entryX=0.5;entryY=0;entryDx=0;entryDy=0;" edge="1" parent="1" target="Sju3vlpgno2fffgPkmKd-21">
          <mxGeometry width="50" height="50" relative="1" as="geometry">
            <mxPoint x="630" y="620" as="sourcePoint" />
            <mxPoint x="657.5" y="670" as="targetPoint" />
          </mxGeometry>
        </mxCell>
        <mxCell id="Sju3vlpgno2fffgPkmKd-23" value="&lt;font style=&quot;vertical-align: inherit;&quot;&gt;&lt;font style=&quot;vertical-align: inherit;&quot;&gt;Area de atencion&lt;/font&gt;&lt;/font&gt;" style="rounded=0;whiteSpace=wrap;html=1;" vertex="1" parent="1">
          <mxGeometry x="230" y="775" width="120" height="65" as="geometry" />
        </mxCell>
        <mxCell id="Sju3vlpgno2fffgPkmKd-27" style="edgeStyle=orthogonalEdgeStyle;rounded=0;orthogonalLoop=1;jettySize=auto;html=1;entryX=0;entryY=0.5;entryDx=0;entryDy=0;" edge="1" parent="1" source="Sju3vlpgno2fffgPkmKd-24" target="Sju3vlpgno2fffgPkmKd-21">
          <mxGeometry relative="1" as="geometry">
            <mxPoint x="650" y="800" as="targetPoint" />
          </mxGeometry>
        </mxCell>
        <mxCell id="Sju3vlpgno2fffgPkmKd-28" value="" style="endArrow=classic;html=1;rounded=0;entryX=1;entryY=0.5;entryDx=0;entryDy=0;" edge="1" parent="1" source="Sju3vlpgno2fffgPkmKd-24" target="Sju3vlpgno2fffgPkmKd-23">
          <mxGeometry width="50" height="50" relative="1" as="geometry">
            <mxPoint x="515" y="800" as="sourcePoint" />
            <mxPoint x="450" y="800" as="targetPoint" />
          </mxGeometry>
        </mxCell>
        <mxCell id="Sju3vlpgno2fffgPkmKd-30" value="" style="endArrow=classic;html=1;rounded=0;entryX=1;entryY=0.5;entryDx=0;entryDy=0;" edge="1" parent="1" target="Sju3vlpgno2fffgPkmKd-24">
          <mxGeometry width="50" height="50" relative="1" as="geometry">
            <mxPoint x="515" y="800" as="sourcePoint" />
            <mxPoint x="440" y="805" as="targetPoint" />
          </mxGeometry>
        </mxCell>
        <mxCell id="Sju3vlpgno2fffgPkmKd-24" value="&lt;font style=&quot;vertical-align: inherit;&quot;&gt;&lt;font style=&quot;vertical-align: inherit;&quot;&gt;tiene&lt;/font&gt;&lt;/font&gt;" style="rhombus;whiteSpace=wrap;html=1;" vertex="1" parent="1">
          <mxGeometry x="520" y="770" width="100" height="60" as="geometry" />
        </mxCell>
        <mxCell id="Sju3vlpgno2fffgPkmKd-31" value="" style="endArrow=classic;html=1;rounded=0;exitX=0.477;exitY=0.934;exitDx=0;exitDy=0;exitPerimeter=0;entryX=0.571;entryY=0.004;entryDx=0;entryDy=0;entryPerimeter=0;" edge="1" parent="1" source="Sju3vlpgno2fffgPkmKd-16" target="Sju3vlpgno2fffgPkmKd-23">
          <mxGeometry width="50" height="50" relative="1" as="geometry">
            <mxPoint x="400" y="770" as="sourcePoint" />
            <mxPoint x="300" y="760" as="targetPoint" />
          </mxGeometry>
        </mxCell>
        <mxCell id="Sju3vlpgno2fffgPkmKd-32" value="&lt;font style=&quot;vertical-align: inherit;&quot;&gt;&lt;font style=&quot;vertical-align: inherit;&quot;&gt;&lt;font style=&quot;vertical-align: inherit;&quot;&gt;&lt;font style=&quot;vertical-align: inherit;&quot;&gt;empleado&lt;/font&gt;&lt;/font&gt;&lt;/font&gt;&lt;/font&gt;" style="rounded=0;whiteSpace=wrap;html=1;" vertex="1" parent="1">
          <mxGeometry x="-40" y="760" width="120" height="60" as="geometry" />
        </mxCell>
        <mxCell id="Sju3vlpgno2fffgPkmKd-33" value="" style="endArrow=classic;html=1;rounded=0;entryX=1;entryY=0;entryDx=0;entryDy=0;exitX=0.407;exitY=0.991;exitDx=0;exitDy=0;exitPerimeter=0;" edge="1" parent="1" source="Sju3vlpgno2fffgPkmKd-14" target="Sju3vlpgno2fffgPkmKd-32">
          <mxGeometry width="50" height="50" relative="1" as="geometry">
            <mxPoint x="110" y="670" as="sourcePoint" />
            <mxPoint x="160" y="620" as="targetPoint" />
          </mxGeometry>
        </mxCell>
        <mxCell id="Sju3vlpgno2fffgPkmKd-34" value="&lt;font style=&quot;vertical-align: inherit;&quot;&gt;&lt;font style=&quot;vertical-align: inherit;&quot;&gt;&lt;font style=&quot;vertical-align: inherit;&quot;&gt;&lt;font style=&quot;vertical-align: inherit;&quot;&gt;&lt;font style=&quot;vertical-align: inherit;&quot;&gt;&lt;font style=&quot;vertical-align: inherit;&quot;&gt;&lt;font style=&quot;vertical-align: inherit;&quot;&gt;&lt;font style=&quot;vertical-align: inherit;&quot;&gt;&lt;font style=&quot;vertical-align: inherit;&quot;&gt;&lt;font style=&quot;vertical-align: inherit;&quot;&gt;&lt;font style=&quot;vertical-align: inherit;&quot;&gt;&lt;font style=&quot;vertical-align: inherit;&quot;&gt;&lt;font style=&quot;vertical-align: inherit;&quot;&gt;&lt;font style=&quot;vertical-align: inherit;&quot;&gt;solicita&lt;/font&gt;&lt;/font&gt;&lt;/font&gt;&lt;/font&gt;&lt;/font&gt;&lt;/font&gt;&lt;/font&gt;&lt;/font&gt;&lt;/font&gt;&lt;/font&gt;&lt;/font&gt;&lt;/font&gt;&lt;/font&gt;&lt;/font&gt;" style="rhombus;whiteSpace=wrap;html=1;" vertex="1" parent="1">
          <mxGeometry x="70" y="990" width="110" height="90" as="geometry" />
        </mxCell>
        <mxCell id="Sju3vlpgno2fffgPkmKd-38" value="" style="edgeStyle=segmentEdgeStyle;endArrow=classic;html=1;curved=0;rounded=0;endSize=8;startSize=8;sourcePerimeterSpacing=0;targetPerimeterSpacing=0;entryX=0;entryY=0;entryDx=0;entryDy=0;exitX=0.5;exitY=1;exitDx=0;exitDy=0;" edge="1" parent="1" source="Sju3vlpgno2fffgPkmKd-32">
          <mxGeometry width="100" relative="1" as="geometry">
            <mxPoint x="10" y="830" as="sourcePoint" />
            <mxPoint x="70.30000000000001" y="1041" as="targetPoint" />
            <Array as="points">
              <mxPoint x="20" y="901" />
              <mxPoint x="-67" y="901" />
              <mxPoint x="-67" y="969" />
              <mxPoint x="-37" y="969" />
              <mxPoint x="-37" y="1041" />
            </Array>
          </mxGeometry>
        </mxCell>
        <mxCell id="Sju3vlpgno2fffgPkmKd-39" value="" style="edgeStyle=segmentEdgeStyle;endArrow=classic;html=1;curved=0;rounded=0;endSize=8;startSize=8;sourcePerimeterSpacing=0;targetPerimeterSpacing=0;exitX=1;exitY=0.5;exitDx=0;exitDy=0;entryX=0.144;entryY=0.984;entryDx=0;entryDy=0;entryPerimeter=0;" edge="1" parent="1" source="Sju3vlpgno2fffgPkmKd-34" target="Sju3vlpgno2fffgPkmKd-21">
          <mxGeometry width="100" relative="1" as="geometry">
            <mxPoint x="180" y="1095" as="sourcePoint" />
            <mxPoint x="689.96" y="900" as="targetPoint" />
            <Array as="points">
              <mxPoint x="180" y="1120" />
              <mxPoint x="295" y="1120" />
              <mxPoint x="295" y="1110" />
              <mxPoint x="325" y="1110" />
              <mxPoint x="325" y="1088" />
              <mxPoint x="690" y="1088" />
              <mxPoint x="690" y="839" />
            </Array>
          </mxGeometry>
        </mxCell>
        <mxCell id="Sju3vlpgno2fffgPkmKd-42" value="&lt;font style=&quot;vertical-align: inherit;&quot;&gt;&lt;font style=&quot;vertical-align: inherit;&quot;&gt;area de trabajo&lt;/font&gt;&lt;/font&gt;" style="ellipse;whiteSpace=wrap;html=1;" vertex="1" parent="1">
          <mxGeometry x="-300" y="850" width="120" height="80" as="geometry" />
        </mxCell>
        <mxCell id="Sju3vlpgno2fffgPkmKd-43" value="&lt;font style=&quot;vertical-align: inherit;&quot;&gt;&lt;font style=&quot;vertical-align: inherit;&quot;&gt;horarios&lt;/font&gt;&lt;/font&gt;" style="ellipse;whiteSpace=wrap;html=1;" vertex="1" parent="1">
          <mxGeometry x="-280" y="695" width="120" height="80" as="geometry" />
        </mxCell>
        <mxCell id="Sju3vlpgno2fffgPkmKd-44" value="&lt;font style=&quot;vertical-align: inherit;&quot;&gt;&lt;font style=&quot;vertical-align: inherit;&quot;&gt;permisos&lt;/font&gt;&lt;/font&gt;" style="ellipse;whiteSpace=wrap;html=1;" vertex="1" parent="1">
          <mxGeometry x="-250" y="550" width="120" height="80" as="geometry" />
        </mxCell>
        <mxCell id="Sju3vlpgno2fffgPkmKd-45" value="" style="endArrow=classic;html=1;rounded=0;entryX=0.8;entryY=0.988;entryDx=0;entryDy=0;entryPerimeter=0;" edge="1" parent="1" target="Sju3vlpgno2fffgPkmKd-44">
          <mxGeometry width="50" height="50" relative="1" as="geometry">
            <mxPoint x="-40" y="760" as="sourcePoint" />
            <mxPoint x="10" y="710" as="targetPoint" />
          </mxGeometry>
        </mxCell>
        <mxCell id="Sju3vlpgno2fffgPkmKd-46" value="" style="endArrow=classic;html=1;rounded=0;entryX=0.8;entryY=0.988;entryDx=0;entryDy=0;entryPerimeter=0;exitX=0;exitY=0.5;exitDx=0;exitDy=0;" edge="1" parent="1" source="Sju3vlpgno2fffgPkmKd-32">
          <mxGeometry width="50" height="50" relative="1" as="geometry">
            <mxPoint x="-46" y="865.5" as="sourcePoint" />
            <mxPoint x="-160" y="734.5" as="targetPoint" />
          </mxGeometry>
        </mxCell>
        <mxCell id="Sju3vlpgno2fffgPkmKd-47" value="" style="endArrow=classic;html=1;rounded=0;entryX=1;entryY=0.5;entryDx=0;entryDy=0;exitX=0;exitY=1;exitDx=0;exitDy=0;" edge="1" parent="1" source="Sju3vlpgno2fffgPkmKd-32" target="Sju3vlpgno2fffgPkmKd-42">
          <mxGeometry width="50" height="50" relative="1" as="geometry">
            <mxPoint x="-56" y="981" as="sourcePoint" />
            <mxPoint x="-170" y="850" as="targetPoint" />
          </mxGeometry>
        </mxCell>
        <mxCell id="Sju3vlpgno2fffgPkmKd-48" value="&lt;font style=&quot;vertical-align: inherit;&quot;&gt;&lt;font style=&quot;vertical-align: inherit;&quot;&gt;papel autorizado&lt;/font&gt;&lt;/font&gt;" style="ellipse;whiteSpace=wrap;html=1;" vertex="1" parent="1">
          <mxGeometry x="910" y="590" width="120" height="80" as="geometry" />
        </mxCell>
        <mxCell id="Sju3vlpgno2fffgPkmKd-49" value="" style="endArrow=classic;html=1;rounded=0;" edge="1" parent="1" target="Sju3vlpgno2fffgPkmKd-48">
          <mxGeometry width="50" height="50" relative="1" as="geometry">
            <mxPoint x="800" y="800" as="sourcePoint" />
            <mxPoint x="850" y="750" as="targetPoint" />
          </mxGeometry>
        </mxCell>
        <mxCell id="Sju3vlpgno2fffgPkmKd-50" value="&lt;font style=&quot;vertical-align: inherit;&quot;&gt;&lt;font style=&quot;vertical-align: inherit;&quot;&gt;direccion&lt;/font&gt;&lt;/font&gt;&lt;div&gt;&lt;font style=&quot;vertical-align: inherit;&quot;&gt;&lt;font style=&quot;vertical-align: inherit;&quot;&gt;&lt;br&gt;&lt;/font&gt;&lt;/font&gt;&lt;/div&gt;" style="ellipse;whiteSpace=wrap;html=1;" vertex="1" parent="1">
          <mxGeometry x="950" y="850" width="120" height="80" as="geometry" />
        </mxCell>
        <mxCell id="Sju3vlpgno2fffgPkmKd-51" value="&lt;font style=&quot;vertical-align: inherit;&quot;&gt;&lt;font style=&quot;vertical-align: inherit;&quot;&gt;nombre&lt;/font&gt;&lt;/font&gt;" style="ellipse;whiteSpace=wrap;html=1;" vertex="1" parent="1">
          <mxGeometry x="940" y="720" width="120" height="80" as="geometry" />
        </mxCell>
        <mxCell id="Sju3vlpgno2fffgPkmKd-52" value="" style="endArrow=classic;html=1;rounded=0;entryX=0;entryY=1;entryDx=0;entryDy=0;" edge="1" parent="1" target="Sju3vlpgno2fffgPkmKd-51">
          <mxGeometry width="50" height="50" relative="1" as="geometry">
            <mxPoint x="800" y="835" as="sourcePoint" />
            <mxPoint x="850" y="785" as="targetPoint" />
          </mxGeometry>
        </mxCell>
        <mxCell id="Sju3vlpgno2fffgPkmKd-53" value="" style="endArrow=classic;html=1;rounded=0;entryX=0.05;entryY=0.175;entryDx=0;entryDy=0;entryPerimeter=0;exitX=0.75;exitY=1;exitDx=0;exitDy=0;" edge="1" parent="1" source="Sju3vlpgno2fffgPkmKd-21" target="Sju3vlpgno2fffgPkmKd-50">
          <mxGeometry width="50" height="50" relative="1" as="geometry">
            <mxPoint x="810" y="845" as="sourcePoint" />
            <mxPoint x="968" y="798" as="targetPoint" />
          </mxGeometry>
        </mxCell>
        <mxCell id="Sju3vlpgno2fffgPkmKd-54" value="&lt;font style=&quot;vertical-align: inherit;&quot;&gt;&lt;font style=&quot;vertical-align: inherit;&quot;&gt;num. cama&lt;/font&gt;&lt;/font&gt;" style="ellipse;whiteSpace=wrap;html=1;" vertex="1" parent="1">
          <mxGeometry x="140" y="900" width="120" height="80" as="geometry" />
        </mxCell>
        <mxCell id="Sju3vlpgno2fffgPkmKd-55" value="&lt;font style=&quot;vertical-align: inherit;&quot;&gt;&lt;font style=&quot;vertical-align: inherit;&quot;&gt;&lt;font style=&quot;vertical-align: inherit;&quot;&gt;&lt;font style=&quot;vertical-align: inherit;&quot;&gt;equiamiento medico&lt;/font&gt;&lt;/font&gt;&lt;/font&gt;&lt;/font&gt;" style="ellipse;whiteSpace=wrap;html=1;" vertex="1" parent="1">
          <mxGeometry x="290" y="930" width="120" height="80" as="geometry" />
        </mxCell>
        <mxCell id="Sju3vlpgno2fffgPkmKd-56" value="" style="endArrow=classic;html=1;rounded=0;exitX=0;exitY=1;exitDx=0;exitDy=0;entryX=0.717;entryY=0.035;entryDx=0;entryDy=0;entryPerimeter=0;" edge="1" parent="1" source="Sju3vlpgno2fffgPkmKd-23" target="Sju3vlpgno2fffgPkmKd-54">
          <mxGeometry width="50" height="50" relative="1" as="geometry">
            <mxPoint x="240" y="900" as="sourcePoint" />
            <mxPoint x="290" y="850" as="targetPoint" />
          </mxGeometry>
        </mxCell>
        <mxCell id="Sju3vlpgno2fffgPkmKd-57" value="" style="endArrow=classic;html=1;rounded=0;exitX=0.654;exitY=1.042;exitDx=0;exitDy=0;entryX=0.5;entryY=0;entryDx=0;entryDy=0;exitPerimeter=0;" edge="1" parent="1" source="Sju3vlpgno2fffgPkmKd-23" target="Sju3vlpgno2fffgPkmKd-55">
          <mxGeometry width="50" height="50" relative="1" as="geometry">
            <mxPoint x="344" y="850" as="sourcePoint" />
            <mxPoint x="340" y="913" as="targetPoint" />
          </mxGeometry>
        </mxCell>
        <mxCell id="Sju3vlpgno2fffgPkmKd-58" value="&lt;font style=&quot;vertical-align: inherit;&quot;&gt;&lt;font style=&quot;vertical-align: inherit;&quot;&gt;espacio autorizado&lt;/font&gt;&lt;/font&gt;" style="ellipse;whiteSpace=wrap;html=1;" vertex="1" parent="1">
          <mxGeometry x="450" y="910" width="120" height="80" as="geometry" />
        </mxCell>
        <mxCell id="Sju3vlpgno2fffgPkmKd-59" value="&lt;font style=&quot;vertical-align: inherit;&quot;&gt;&lt;font style=&quot;vertical-align: inherit;&quot;&gt;tpo de area especializada&lt;/font&gt;&lt;/font&gt;" style="ellipse;whiteSpace=wrap;html=1;" vertex="1" parent="1">
          <mxGeometry x="850" y="960" width="120" height="80" as="geometry" />
        </mxCell>
        <mxCell id="Sju3vlpgno2fffgPkmKd-60" value="" style="endArrow=classic;html=1;rounded=0;entryX=0.092;entryY=0.113;entryDx=0;entryDy=0;entryPerimeter=0;exitX=0.623;exitY=0.984;exitDx=0;exitDy=0;exitPerimeter=0;" edge="1" parent="1" source="Sju3vlpgno2fffgPkmKd-21" target="Sju3vlpgno2fffgPkmKd-59">
          <mxGeometry width="50" height="50" relative="1" as="geometry">
            <mxPoint x="780" y="940" as="sourcePoint" />
            <mxPoint x="830" y="890" as="targetPoint" />
          </mxGeometry>
        </mxCell>
        <mxCell id="Sju3vlpgno2fffgPkmKd-61" value="" style="endArrow=classic;html=1;rounded=0;entryX=0.227;entryY=0.081;entryDx=0;entryDy=0;entryPerimeter=0;exitX=1;exitY=1;exitDx=0;exitDy=0;" edge="1" parent="1" source="Sju3vlpgno2fffgPkmKd-23" target="Sju3vlpgno2fffgPkmKd-58">
          <mxGeometry width="50" height="50" relative="1" as="geometry">
            <mxPoint x="400" y="800" as="sourcePoint" />
            <mxPoint x="450" y="750" as="targetPoint" />
          </mxGeometry>
        </mxCell>
        <mxCell id="Sju3vlpgno2fffgPkmKd-62" value="&lt;font style=&quot;vertical-align: inherit;&quot;&gt;&lt;font style=&quot;vertical-align: inherit;&quot;&gt;datos personales&lt;/font&gt;&lt;/font&gt;" style="ellipse;whiteSpace=wrap;html=1;" vertex="1" parent="1">
          <mxGeometry x="-70" y="510" width="120" height="80" as="geometry" />
        </mxCell>
        <mxCell id="Sju3vlpgno2fffgPkmKd-63" value="" style="endArrow=classic;html=1;rounded=0;entryX=0.623;entryY=0.046;entryDx=0;entryDy=0;entryPerimeter=0;exitX=0.5;exitY=1;exitDx=0;exitDy=0;" edge="1" parent="1" source="Sju3vlpgno2fffgPkmKd-62" target="Sju3vlpgno2fffgPkmKd-32">
          <mxGeometry width="50" height="50" relative="1" as="geometry">
            <mxPoint x="-30" y="655" as="sourcePoint" />
            <mxPoint x="20" y="605" as="targetPoint" />
          </mxGeometry>
        </mxCell>
        <mxCell id="Sju3vlpgno2fffgPkmKd-64" value="&lt;font style=&quot;vertical-align: inherit;&quot;&gt;&lt;font style=&quot;vertical-align: inherit;&quot;&gt;datos personales&lt;/font&gt;&lt;/font&gt;" style="ellipse;whiteSpace=wrap;html=1;" vertex="1" parent="1">
          <mxGeometry x="760" y="540" width="120" height="80" as="geometry" />
        </mxCell>
        <mxCell id="Sju3vlpgno2fffgPkmKd-65" value="" style="endArrow=classic;html=1;rounded=0;entryX=0.75;entryY=0;entryDx=0;entryDy=0;exitX=0.331;exitY=0.956;exitDx=0;exitDy=0;exitPerimeter=0;" edge="1" parent="1" source="Sju3vlpgno2fffgPkmKd-64" target="Sju3vlpgno2fffgPkmKd-21">
          <mxGeometry width="50" height="50" relative="1" as="geometry">
            <mxPoint x="740" y="695" as="sourcePoint" />
            <mxPoint x="790" y="645" as="targetPoint" />
          </mxGeometry>
        </mxCell>
      </root>
    </mxGraphModel>
  </diagram>
</mxfile>
